<?xml version="1.0" standalone="no"?>
<!DOCTYPE svg PUBLIC "-//W3C//DTD SVG 20010904//EN"
 "http://www.w3.org/TR/2001/REC-SVG-20010904/DTD/svg10.dtd">
<svg version="1.0" xmlns="http://www.w3.org/2000/svg"
 width="511.000000pt" height="369.000000pt" viewBox="0 0 511.000000 369.000000"
 preserveAspectRatio="xMidYMid meet">

<g transform="translate(0.000000,369.000000) scale(0.100000,-0.100000)"
fill="#000000" stroke="none">
<path d="M4415 3456 c-32 -12 -180 -156 -737 -718 l-697 -703 127 -128 128
-127 585 587 c798 802 815 819 829 872 36 136 -102 264 -235 217z"/>
<path d="M642 3315 c-97 -30 -172 -111 -192 -208 -7 -36 -10 -460 -8 -1362 l3
-1310 23 -47 c28 -57 108 -131 160 -150 30 -11 353 -13 1717 -13 l1680 0 57
28 c61 30 95 64 131 131 l22 41 3 950 2 950 -135 -135 -135 -135 0 -777 0
-778 -1625 0 -1625 0 0 1275 0 1275 1408 0 1407 0 140 140 140 140 -1565 -1
c-1285 0 -1573 -3 -1608 -14z"/>
<path d="M2550 1781 c-134 -44 -235 -159 -321 -363 -77 -185 -120 -259 -192
-335 -39 -41 -93 -90 -120 -110 -49 -36 -50 -38 -26 -44 49 -14 364 -9 455 6
220 39 375 112 516 244 91 85 123 155 123 271 0 71 -4 94 -26 141 -33 70 -91
130 -161 165 -43 22 -69 28 -138 30 -47 2 -96 0 -110 -5z"/>
</g>
</svg>
